<svg xmlns="http://www.w3.org/2000/svg" viewBox="0 0 713.33 496.31"><defs><style>.cls-1{fill:#fff;}</style></defs><title>lal_logo</title><g id="Layer_2" data-name="Layer 2"><g id="레이어_1" data-name="레이어 1"><path class="cls-1" d="M604.88,496.31l-60.36-79c42.82-32.72,69.41-97.31,69.41-168.55,0-70.81-27.59-137.24-70.3-169.24L603.22,0c67.92,50.88,110.11,146.21,110.11,248.79C713.33,350.34,671.78,445.18,604.88,496.31Z"/><path class="cls-1" d="M265.44,274.45A137.84,137.84,0,0,1,158.33,167.33a2.88,2.88,0,0,0-5.6,0A137.87,137.87,0,0,1,45.61,274.45a2.88,2.88,0,0,0,0,5.6A137.84,137.84,0,0,1,152.73,387.16a2.88,2.88,0,0,0,5.6,0A137.82,137.82,0,0,1,265.44,280.05,2.88,2.88,0,0,0,265.44,274.45Z"/><path class="cls-1" d="M333.19,496.31s-7.49-135-79.4-135h0c-71.92,0-79.41,135-79.41,135Z"/><path class="cls-1" d="M157.46,496.31c0-74.57-70.5-135-157.46-135v135Z"/><path class="cls-1" d="M510.41,496.31c0-74.57-70.49-135-157.45-135v135Z"/><circle class="cls-1" cx="487.58" cy="329.28" r="43.69"/><polygon class="cls-1" points="546.85 150.19 520.01 123.35 487.58 155.78 455.15 123.35 428.31 150.19 460.74 182.62 428.31 215.05 455.15 241.89 487.58 209.46 520.01 241.89 546.85 215.05 514.42 182.62 546.85 150.19"/></g></g></svg>