<svg width="61" height="42" viewBox="0 0 61 42" fill="none" xmlns="http://www.w3.org/2000/svg">
<path d="M48.3895 10.6546L47.2251 12.938L46.0331 10.3619L44.2865 10.1277L46.338 14.6066L44.2865 18.5586L46.0331 18.7928L47.2251 16.5387L48.3895 19.0855L50.136 19.3197L48.0845 14.8408L50.136 10.8888L48.3895 10.6546Z" fill="white"/>
<path d="M40.5719 9.29683C39.6822 9.18628 38.7663 10.9828 38.5047 13.2767C38.243 15.5983 38.7663 17.5606 39.656 17.6435C40.5457 17.7541 41.4616 15.9576 41.7232 13.6637C41.9587 11.3421 41.4354 9.40739 40.5719 9.29683Z" fill="white"/>
<path d="M55.6861 21.4635C56.1898 16.7813 55.798 12.2653 54.5106 8.58053C52.9994 4.25851 50.4247 1.37716 47.2343 0.435183C44.9114 -0.257449 42.5046 0.130425 40.2658 1.54339C36.1798 4.09228 33.1013 9.71645 32.0099 16.5874C31.786 18.0003 31.6461 19.4133 31.5901 20.7986C23.81 19.2748 22.9984 14.5649 25.2932 2.0698L24.2018 2.0698C22.6066 10.7138 20.7315 15.119 17.5691 17.751C14.4067 20.4107 9.76101 21.4358 1.02937 21.4358L0.833467 22.5163C9.5651 22.5163 13.819 23.5414 16.0019 26.2011C18.1848 28.8608 18.4087 33.2659 16.8135 41.8823L17.9049 41.8823C19.5001 33.2382 21.3472 28.8331 24.5376 26.2011C26.2728 24.7327 28.4836 23.763 31.5621 23.2089C31.6461 26.1457 32.1498 28.9439 33.0174 31.382C34.5846 35.7594 37.1873 38.6685 40.4057 39.6104C41.1333 39.8321 41.861 39.9429 42.5886 39.9429C44.1278 39.9429 45.6671 39.4719 47.1503 38.5576C51.2083 36.0088 54.3147 30.3015 55.4342 23.2366C55.4622 22.9873 55.5181 22.7656 55.5461 22.5163L59.9119 22.5163L60.1638 21.4635L55.6861 21.4635ZM53.4472 22.9042C52.4117 29.3872 49.6691 34.5958 46.0869 36.8399C44.4077 37.8927 42.6726 38.1698 40.9934 37.6711C38.4187 36.923 36.2917 34.4296 34.9484 30.6893C34.1088 28.3621 33.6611 25.7024 33.6051 22.8765C34.8645 22.7379 36.2358 22.6271 37.747 22.5717C37.6071 23.9016 37.4672 25.3699 37.4392 26.2565C37.3552 28.1128 37.691 29.6642 38.4187 30.8833C39.3422 32.4348 40.9654 33.4045 42.5886 33.4045C42.6726 33.4045 42.7565 33.4045 42.8405 33.4045C44.4357 33.2936 45.9189 32.2963 46.8425 30.6893C47.5981 29.3872 47.878 27.9188 48.1018 26.5336C48.3257 25.2037 48.5216 23.8461 48.6616 22.5163L53.5031 22.5163C53.4752 22.6548 53.4472 22.7933 53.4472 22.9042ZM53.6431 21.4635L48.7735 21.4635L46.7305 21.4635C46.5626 23.0427 46.3387 24.6496 46.0869 26.2288C45.8909 27.5032 45.6391 28.7223 45.0514 29.7197C44.6036 30.4954 43.736 31.3543 42.6726 31.4374C41.749 31.4928 40.7135 30.8833 40.1258 29.9136C39.5941 29.027 39.3702 27.8357 39.4262 26.395C39.4822 25.3145 39.6781 23.2643 39.846 21.7405C39.9019 21.325 39.9299 20.9371 39.9579 20.6323L37.9429 20.4384C37.9149 20.7154 37.8869 21.0479 37.831 21.4081C36.2638 21.3527 34.8365 21.2696 33.5771 21.1033C33.6331 19.7181 33.745 18.3051 33.9689 16.8921C34.9764 10.5753 37.719 5.47754 41.3012 3.23342C42.5046 2.48537 43.736 2.0975 44.9674 2.0975C45.5271 2.0975 46.0869 2.18062 46.6186 2.34685C49.1653 3.09489 51.2922 5.53295 52.5516 9.21776C53.811 12.6809 54.1468 16.9752 53.6431 21.4635Z" fill="white"/>
</svg>
