<svg width="380" height="24" viewBox="0 0 380 24" fill="none" xmlns="http://www.w3.org/2000/svg">
<g clip-path="url(#clip0)">
<path d="M21.9845 18.1659L21.9845 22.9156L0.0596327 22.9156L0.0596313 0.877197L5.51606 0.877197L5.51606 18.1659L21.9845 18.1659Z" fill="white"/>
<path d="M44.7031 18.1659L32.0046 18.1659L29.7228 22.8206L23.6711 22.8206L34.6832 0.877197L42.1237 0.877196L53.1358 22.8206L47.0841 22.8206L44.7031 18.1659ZM42.719 13.9862L38.3539 5.05689L33.9887 13.9862L42.719 13.9862Z" fill="white"/>
<path d="M46.5881 0.877197L53.235 0.877197L61.4692 10.8515L69.6043 0.877196L76.2512 0.877195L64.1478 15.6011L64.1478 22.8206L58.6914 22.8206L58.6914 15.6011L46.5881 0.877197Z" fill="white"/>
<path d="M83.1958 5.34187L83.1958 9.80654L100.26 9.80654L100.26 13.8912L83.1958 13.8912L83.1958 18.3559L100.26 18.3559L100.26 22.8206L77.6401 22.8206L77.6401 0.877197L100.26 0.877196L100.26 5.34187L83.1958 5.34187Z" fill="white"/>
<path d="M122.68 16.3611L126.649 22.9156L120.101 22.9156L116.629 17.026L107.799 17.026L107.799 22.9156L102.343 22.9156L102.343 0.877197L119.109 0.877196C123.97 0.877196 127.244 4.01197 127.244 8.9516C127.244 12.5613 125.557 15.1262 122.68 16.3611ZM107.799 12.2764L117.522 12.2764C119.208 12.2764 121.688 12.2764 121.688 8.9516C121.688 5.62685 119.109 5.62685 117.522 5.62685L107.799 5.62685L107.799 12.2764Z" fill="white"/>
<path d="M156.907 15.1261L156.907 22.8206L152.542 22.8206L152.542 20.9207C149.863 22.2506 146.986 23.1055 143.514 23.1055C139.347 23.1055 136.768 21.6806 136.768 18.2609C136.768 14.2712 141.034 13.0363 145.697 13.0363C148.276 13.0363 150.558 13.4162 152.542 14.1762C152.542 11.2314 148.871 11.0414 146.887 11.0414C144.903 11.0414 142.522 11.2314 139.546 12.1813L137.958 8.85658C141.034 7.81166 144.01 7.2417 147.086 7.2417C153.336 7.2417 156.907 9.33155 156.907 15.1261ZM152.542 16.931C151.054 16.456 148.971 15.9811 146.193 15.9811C142.919 15.9811 141.034 16.551 141.034 18.0709C141.034 19.6858 142.522 19.7808 144.705 19.7808C147.086 19.7808 150.26 19.0208 152.542 18.0709L152.542 16.931Z" fill="white"/>
<path d="M166.133 7.52675L172.383 7.52675L172.383 11.2315L166.133 11.2315L166.133 22.8206L161.768 22.8206L161.768 11.2315L157.8 11.2315L157.8 7.52675L161.768 7.52675L161.768 6.38684C161.768 3.25207 163.554 1.73218 167.919 1.73218C169.407 1.73218 170.201 1.73218 172.383 2.01716L172.383 5.15193C171.391 5.05693 170.399 5.05693 169.308 5.05693C166.828 5.05693 166.233 5.62689 166.133 7.52675Z" fill="white"/>
<path d="M181.907 11.2314L181.907 15.6961C181.907 18.6408 182.503 19.4008 185.082 19.4008C186.471 19.4008 187.165 19.4008 188.951 19.1158L188.951 22.7255C187.463 23.0105 185.876 23.1055 183.892 23.1055C180.022 23.1055 177.542 21.5856 177.542 18.2609L177.542 11.2314L173.574 11.2314L173.574 7.52666L177.542 7.52666L177.542 4.39189L181.907 3.15698L181.907 7.52666L188.951 7.52666L188.951 11.2314L181.907 11.2314Z" fill="white"/>
<path d="M206.015 17.4059L210.281 17.4059C209.289 21.3006 205.618 23.2005 200.063 23.2005C194.408 23.2005 190.043 20.9207 190.043 15.3161C190.043 9.7115 194.308 7.33667 200.36 7.33667C206.015 7.33667 210.579 9.33152 210.579 16.361L194.507 16.361C195.003 18.8308 197.285 19.5908 200.162 19.5908C203.138 19.4958 204.924 18.9258 206.015 17.4059ZM194.705 13.4162L206.015 13.4162C205.321 11.2314 203.138 10.6614 200.459 10.6614C197.384 10.6614 195.301 11.2314 194.705 13.4162Z" fill="white"/>
<path d="M228.237 7.81166L228.237 11.5164C226.849 11.1364 225.658 11.0414 224.468 11.0414C222.087 11.0414 219.21 11.6114 216.63 13.7012L216.63 22.9156L212.265 22.9156L212.265 7.52668L216.63 7.52668L216.63 10.0915C218.813 8.00164 221.491 7.2417 224.269 7.2417C225.956 7.2417 227.245 7.52668 228.237 7.81166Z" fill="white"/>
<path d="M261.571 18.1659L261.571 22.9156L237.96 22.9156L237.96 0.877197L243.912 0.877197L243.912 18.1659L261.571 18.1659Z" fill="white"/>
<path d="M287.167 18.1659L273.377 18.1659L270.897 22.8206L264.448 22.8206L276.353 0.877197L284.29 0.877196L296.195 22.8206L289.647 22.8206L287.167 18.1659ZM284.984 13.9862L280.322 5.05689L275.659 13.9862L284.984 13.9862Z" fill="white"/>
<path d="M290.342 0.877197L297.484 0.877197L306.314 10.8515L315.143 0.877196L322.286 0.877195L309.29 15.6011L309.29 22.8206L303.338 22.8206L303.338 15.6011L290.342 0.877197Z" fill="white"/>
<path d="M330.818 5.34187L330.818 9.80654L349.172 9.80654L349.172 13.8912L330.818 13.8912L330.818 18.3559L349.172 18.3559L349.172 22.8206L324.866 22.8206L324.866 0.877197L349.172 0.877196L349.172 5.34187L330.818 5.34187Z" fill="white"/>
<path d="M374.47 16.3611L378.736 22.9156L371.791 22.9156L368.12 17.026L358.596 17.026L358.596 22.9156L352.644 22.9156L352.644 0.877197L370.7 0.877196C375.958 0.877196 379.529 4.01197 379.529 8.95161C379.529 12.5613 377.545 15.1262 374.47 16.3611ZM358.596 12.2764L369.112 12.2764C370.898 12.2764 373.676 12.2764 373.676 8.95161C373.676 5.62685 370.898 5.62685 369.112 5.62685L358.596 5.62685L358.596 12.2764Z" fill="white"/>
</g>
<defs>
<clipPath id="clip0">
<rect width="379.47" height="22.2284" fill="white" transform="translate(0.0596313 0.877197)"/>
</clipPath>
</defs>
</svg>
