<svg width="131" height="35" viewBox="0 0 131 35" fill="none" xmlns="http://www.w3.org/2000/svg">
<path d="M78.7877 3.1349C75.6824 3.1349 72.9743 9.55218 71.2773 19.3994C69.6163 9.55218 66.8721 3.1349 63.7668 3.1349C60.6615 3.1349 57.9173 9.55219 56.2563 19.4363C54.5953 9.55219 51.8511 3.09802 48.7458 3.09802C44.4851 3.09802 40.9104 15.2687 39.8271 31.8651H56.1119H56.4007H71.1328H72.6855H87.7064C86.6232 15.3056 83.0485 3.1349 78.7877 3.1349Z" fill="#0000FF"/>
<path d="M130.639 17.0759C122.406 15.3424 115.943 8.74076 114.282 0.368794C114.174 -0.0737775 113.524 -0.0737775 113.415 0.368794C111.718 8.77764 105.255 15.3793 97.0584 17.0759C96.6251 17.1865 96.6251 17.8504 97.0584 17.961C105.291 19.6944 111.754 26.2961 113.415 34.6681C113.524 35.1106 114.174 35.1106 114.282 34.6681C115.979 26.2592 122.442 19.6575 130.639 17.961C131.108 17.8504 131.108 17.1496 130.639 17.0759Z" fill="#0000FF"/>
<path d="M28.056 9.6628L21.7009 3.17175L14.046 11.0274L6.35502 3.17175L0 9.6628L7.69101 17.5184L0 25.3372L6.35502 31.8282L14.046 24.0095L21.7009 31.8282L28.056 25.3372L20.401 17.5184L28.056 9.6628Z" fill="#0000FF"/>
</svg>
