<svg xmlns="http://www.w3.org/2000/svg" viewBox="0 0 258.26 179.69"><defs><style>.cls-1{fill:blue;}</style></defs><title>lal_logo_blue</title><g id="Layer_2" data-name="Layer 2"><g id="레이어_1" data-name="레이어 1"><path class="cls-1" d="M219,179.69,197.14,151.1c15.5-11.85,25.13-35.23,25.13-61,0-25.63-10-49.68-25.45-61.27L218.39,0C243,18.42,258.26,52.93,258.26,90.07,258.26,126.84,243.21,161.18,219,179.69Z"/><path class="cls-1" d="M96.1,99.36A49.9,49.9,0,0,1,57.32,60.58a1,1,0,0,0-2,0A49.87,49.87,0,0,1,16.51,99.36a1,1,0,0,0,0,2,49.9,49.9,0,0,1,38.78,38.78,1,1,0,0,0,2,0A49.93,49.93,0,0,1,96.1,101.39,1,1,0,0,0,96.1,99.36Z"/><path class="cls-1" d="M120.63,179.69s-2.71-48.89-28.75-48.89h0c-26,0-28.75,48.89-28.75,48.89Z"/><path class="cls-1" d="M57,179.69c0-27-25.53-48.89-57-48.89v48.89Z"/><path class="cls-1" d="M184.79,179.69c0-27-25.52-48.89-57-48.89v48.89Z"/><circle class="cls-1" cx="176.53" cy="119.21" r="15.82"/><polygon class="cls-1" points="197.99 54.38 188.27 44.66 176.53 56.4 164.78 44.66 155.07 54.38 166.81 66.12 155.07 77.86 164.78 87.58 176.53 75.83 188.27 87.58 197.99 77.86 186.24 66.12 197.99 54.38"/></g></g></svg>