<svg width="217" height="169" viewBox="0 0 217 169" fill="none" xmlns="http://www.w3.org/2000/svg">
<g clip-path="url(#clip0)">
<path d="M181.259 169H216.943C214.617 124.362 206.902 91.6079 197.711 91.6079C189.882 91.6079 183.131 115.434 179.841 150.064C176.834 117.936 170.763 95.1335 163.672 91.9491C163.672 91.9491 163.672 91.9491 163.615 91.9491C163.502 91.8922 163.388 91.8354 163.275 91.7785H163.218C163.105 91.7216 162.991 91.7216 162.878 91.6648C162.821 91.6648 162.821 91.6648 162.764 91.6648C162.651 91.6648 162.537 91.6079 162.424 91.6079H162.367C162.254 91.6079 162.083 91.6079 161.97 91.6079C154.141 91.6079 147.39 115.377 144.099 150.064C140.809 115.434 134.058 91.6079 126.229 91.6079C118.4 91.6079 111.649 115.377 108.358 150.064C105.068 115.434 98.3166 91.6079 90.4876 91.6079C82.6586 91.6079 75.9075 115.377 72.617 150.064C69.3265 115.434 62.5754 91.6079 54.7464 91.6079C54.6329 91.6079 54.4628 91.6079 54.3493 91.6079H54.2926C54.1791 91.6079 54.0656 91.6648 53.9522 91.6648C53.8954 91.6648 53.8954 91.6648 53.8387 91.6648C53.7252 91.6648 53.6118 91.7216 53.4983 91.7785H53.4416C53.3281 91.8354 53.2146 91.8922 53.1012 91.9491C53.1012 91.9491 53.1012 91.9491 53.0445 91.9491C45.9529 95.1335 39.9394 117.936 36.8758 150.064C33.5854 115.377 26.8343 91.6079 19.0052 91.6079C9.81464 91.6079 2.09908 124.362 -0.226929 169H35.4575H181.259Z" fill="#0000FF"/>
<path d="M144.213 22.9161L141.83 27.3515L139.391 22.3475L135.816 21.8926L140.015 30.5928L135.816 38.2694L139.391 38.7243L141.83 34.3458L144.213 39.293L147.787 39.7479L143.589 31.0477L147.787 23.371L144.213 22.9161Z" fill="#0000FF"/>
<path d="M129.122 19.9021C127.193 19.6746 125.208 23.3708 124.64 28.0905C124.073 32.8671 125.208 36.9044 127.136 37.075C129.065 37.3025 131.051 33.6063 131.618 28.8866C132.129 24.11 130.994 20.1295 129.122 19.9021Z" fill="#0000FF"/>
<path d="M159.53 43.8422C160.552 34.2322 159.757 24.9633 157.148 17.4004C154.084 8.52961 148.865 2.61575 142.397 0.682371C137.689 -0.739231 132.81 0.0568662 128.271 2.95693C119.988 8.18843 113.748 19.7318 111.535 33.8341C111.081 36.7342 110.798 39.6343 110.684 42.4775C94.9127 39.3499 93.2675 29.683 97.9195 4.03735H95.7069C92.4732 21.7789 88.6722 30.8203 82.2614 36.2224C75.8507 41.6814 66.4332 43.7853 48.7328 43.7853L48.3357 46.003C66.0361 46.003 74.6594 48.107 79.0845 53.566C83.5095 59.0249 83.9634 68.0663 80.7297 85.751H82.9422C86.176 68.0094 89.9203 58.968 96.3877 53.566C99.9051 50.5522 104.387 48.5619 110.627 47.4246C110.798 53.4522 111.819 59.1955 113.578 64.1995C116.755 73.1841 122.031 79.1548 128.555 81.0882C130.03 81.5431 131.505 81.7705 132.98 81.7705C136.1 81.7705 139.22 80.8038 142.227 78.9273C150.453 73.6958 156.751 61.9818 159.02 47.4815C159.077 46.9697 159.19 46.5148 159.247 46.003H168.097L168.608 43.8422H159.53ZM154.992 46.7991C152.893 60.1053 147.333 70.7958 140.071 75.4018C136.667 77.5626 133.15 78.1312 129.746 77.1077C124.527 75.5724 120.215 70.4546 117.492 62.7779C115.79 58.0014 114.882 52.5424 114.769 46.7423C117.322 46.4579 120.102 46.2305 123.165 46.1168C122.882 48.8462 122.598 51.86 122.541 53.6797C122.371 57.4896 123.052 60.674 124.527 63.176C126.399 66.3604 129.689 68.3506 132.98 68.3506C133.15 68.3506 133.32 68.3506 133.49 68.3506C136.724 68.1232 139.731 66.076 141.603 62.7779C143.135 60.1053 143.702 57.0915 144.156 54.2483C144.61 51.5189 145.007 48.7325 145.291 46.003H155.105C155.049 46.2874 154.992 46.5717 154.992 46.7991ZM155.389 43.8422H145.518H141.376C141.036 47.0835 140.582 50.3816 140.071 53.6228C139.674 56.2386 139.164 58.7406 137.972 60.7877C137.065 62.3799 135.306 64.1427 133.15 64.3133C131.278 64.427 129.179 63.176 127.987 61.1857C126.91 59.3661 126.456 56.9209 126.569 53.964C126.683 51.7463 127.08 47.5384 127.42 44.4108C127.534 43.5579 127.59 42.7618 127.647 42.1363L123.562 41.7382C123.506 42.3069 123.449 42.9892 123.335 43.7285C120.158 43.6147 117.265 43.4442 114.712 43.103C114.826 40.2598 115.053 37.3597 115.506 34.4596C117.549 21.4946 123.109 11.0316 130.37 6.42564C132.81 4.89031 135.306 4.09422 137.802 4.09422C138.937 4.09422 140.071 4.26481 141.149 4.60599C146.312 6.14132 150.624 11.1454 153.176 18.7083C155.729 25.8163 156.41 34.6302 155.389 43.8422Z" fill="#0000FF"/>
</g>
<defs>
<clipPath id="clip0">
<rect width="217" height="169" fill="white"/>
</clipPath>
</defs>
</svg>
