<svg width="159" height="112" viewBox="0 0 159 112" fill="none" xmlns="http://www.w3.org/2000/svg">
<path d="M25.154 59.3453L25.154 69.1694H19.7019V66.7437C16.3563 68.4417 12.7629 69.5333 8.42598 69.5333C3.2217 69.5333 0 67.714 0 63.3477C0 58.2537 5.32819 56.677 11.152 56.677C14.3737 56.677 17.2237 57.1621 19.7019 58.1324C19.7019 54.3726 15.1172 54.13 12.639 54.13C10.1607 54.13 7.18687 54.3726 3.46952 55.5854L1.48693 51.3404C5.32819 50.0063 9.04553 49.2786 12.8868 49.2786C20.6932 49.2786 25.154 51.9469 25.154 59.3453ZM19.7019 61.6497C17.8432 61.0433 15.2411 60.4369 11.7716 60.4369C7.68251 60.4369 5.3282 61.1646 5.3282 63.1052C5.3282 65.167 7.18686 65.2883 9.91292 65.2883C12.8868 65.2883 16.8519 64.318 19.7019 63.1052V61.6497Z" fill="#0000FF"/>
<path d="M27.3844 105.798V111.862H0L0 83.7239H6.81512L6.81512 105.798H27.3844Z" fill="#0000FF"/>
<path d="M55.7601 105.798H39.8995L37.0495 111.741H29.4909L43.2451 83.7236H52.5384L66.2926 111.741H58.734L55.7601 105.798ZM53.2819 100.461L47.8298 89.0602L42.3777 100.461H53.2819Z" fill="#0000FF"/>
<path d="M58.1145 83.7236H66.4165L76.7012 96.4586L86.8619 83.7236H95.164L80.0468 102.523V111.741H73.2316V102.523L58.1145 83.7236Z" fill="#0000FF"/>
<path d="M103.838 89.4241V95.1245H125.15V100.34H103.838V106.04H125.15V111.741H96.8986V83.7236H125.15V89.4241H103.838Z" fill="#0000FF"/>
<path d="M153.154 103.493L158.111 111.862H149.933L145.596 104.342H134.568V111.862H127.753V83.7236H148.694C154.765 83.7236 158.854 87.7261 158.854 94.0329C158.854 98.6418 156.748 101.917 153.154 103.493ZM134.568 98.2779H146.711C148.818 98.2779 151.915 98.2779 151.915 94.0329C151.915 89.7879 148.694 89.7879 146.711 89.7879H134.568V98.2779Z" fill="#0000FF"/>
<path d="M36.6778 49.6423H44.4842V54.3725H36.6778V69.1694H31.2257L31.2257 54.3725H26.2693L26.2693 49.6423H31.2257V48.1869C31.2257 44.1845 33.4561 42.2439 38.9082 42.2439C40.7669 42.2439 41.7582 42.2439 44.4842 42.6078V46.6102C43.2451 46.4889 42.006 46.4889 40.643 46.4889C37.5452 46.4889 36.8017 47.2166 36.6778 49.6423Z" fill="#0000FF"/>
<path d="M56.3796 54.3725V60.073C56.3796 63.8328 57.123 64.8031 60.3447 64.8031C62.0795 64.8031 62.9469 64.8031 65.1773 64.4393V69.0481C63.3186 69.412 61.336 69.5333 58.8578 69.5333C54.0253 69.5333 50.9275 67.5927 50.9275 63.3477V54.3725H45.971V49.6424H50.9275V45.6399L56.3796 44.0632V49.6424H65.1773V54.3725H56.3796Z" fill="#0000FF"/>
<path d="M86.4901 62.256H91.8183C90.5792 67.2287 85.9944 69.6544 79.0554 69.6544C71.9925 69.6544 66.5404 66.7435 66.5404 59.5877C66.5404 52.4318 71.8686 49.3997 79.4271 49.3997C86.4901 49.3997 92.19 51.9467 92.19 60.9218H72.1164C72.7359 64.0752 75.5859 65.0455 79.1793 65.0455C82.8967 64.9242 85.1271 64.1965 86.4901 62.256ZM72.3642 57.1619H86.4901C85.6227 54.3724 82.8967 53.6447 79.5511 53.6447C75.7098 53.6447 73.1077 54.3724 72.3642 57.1619Z" fill="#0000FF"/>
<path d="M114.246 50.0063V54.7364C112.511 54.2513 111.024 54.13 109.538 54.13C106.564 54.13 102.97 54.8577 99.7486 57.526V69.2907H94.2964V49.6424H99.7486V52.9171C102.475 50.2489 105.82 49.2786 109.29 49.2786C111.396 49.2786 113.007 49.6424 114.246 50.0063Z" fill="#0000FF"/>
<path d="M27.3844 22.074V28.1383L0 28.1383L0 0L6.81512 0L6.81512 22.074L27.3844 22.074Z" fill="#0000FF"/>
<path d="M55.7601 22.074L39.8995 22.074L37.0495 28.017H29.4909L43.2451 0L52.5384 0L66.2926 28.017L58.734 28.017L55.7601 22.074ZM53.2819 16.7374L47.8298 5.33658L42.3777 16.7374H53.2819Z" fill="#0000FF"/>
<path d="M58.1145 0L66.4165 0L76.7012 12.735L86.8619 0L95.164 0L80.0468 18.7993V28.017H73.2316V18.7993L58.1145 0Z" fill="#0000FF"/>
<path d="M103.838 5.70043V11.4009L125.15 11.4009V16.6162L103.838 16.6162V22.3166L125.15 22.3166V28.017L96.8986 28.017V0L125.15 0V5.70043L103.838 5.70043Z" fill="#0000FF"/>
<path d="M153.154 19.7696L158.111 28.1383H149.933L145.596 20.6186L134.568 20.6186V28.1383H127.753V0L148.694 0C154.765 0 158.854 4.00243 158.854 10.3093C158.854 14.9182 156.748 18.1929 153.154 19.7696ZM134.568 14.5543L146.711 14.5543C148.818 14.5543 151.915 14.5543 151.915 10.3093C151.915 6.06429 148.694 6.06429 146.711 6.06429L134.568 6.06429V14.5543Z" fill="#0000FF"/>
</svg>
