<svg xmlns="http://www.w3.org/2000/svg" viewBox="0 0 157.94 111.17"><defs><style>.cls-1{fill:blue;}</style></defs><title>text_logo</title><g id="Layer_2" data-name="Layer 2"><g id="레이어_1" data-name="레이어 1"><path class="cls-1" d="M1.75,0H11V21.32H27.94v6.46H1.75Z"/><path class="cls-1" d="M39.49,0H50.82L62.76,27.78H52.84l-1.67-4.51H39l-1.68,4.51H27.43Zm5.65,7h-.08L41.21,17.51H49Z"/><path class="cls-1" d="M70.74,19,58.4,0H69.14l6.23,11.79L81.6,0H92.33L80,19v8.75H70.74Z"/><path class="cls-1" d="M94,0h27.82V6H103.27v5h17.39v5.76H103.27v5h18.56v6H94Z"/><path class="cls-1" d="M125.72,0H148c3.27,0,5.63.67,7.1,2a7.41,7.41,0,0,1,2.2,5.72A6.74,6.74,0,0,1,156.05,12a5.73,5.73,0,0,1-3.21,2.11v.07a4.51,4.51,0,0,1,2.32,1.68,6.41,6.41,0,0,1,1,3.3c.13,1.69.23,2.94.31,3.74s.17,1.52.29,2.16a7.89,7.89,0,0,0,.45,1.59,4.17,4.17,0,0,0,.7,1.15H147.78a6.3,6.3,0,0,1-.45-1.83c-.06-.67-.09-1.44-.09-2.29,0-2.05-.31-3.42-.92-4.11a3.66,3.66,0,0,0-2.86-1H135v9.26h-9.26ZM135,12.3h8.91a3.7,3.7,0,0,0,2.57-.82,2.9,2.9,0,0,0,.89-2.26,2.8,2.8,0,0,0-.89-2.2,3.75,3.75,0,0,0-2.57-.79H135Z"/><path class="cls-1" d="M1.44,55a7.15,7.15,0,0,1,1.42-3.7,7.26,7.26,0,0,1,2.92-2.18,15.09,15.09,0,0,1,3.93-1,40,40,0,0,1,4.92-.27,44.65,44.65,0,0,1,5.51.31,15.3,15.3,0,0,1,4.16,1.09,6.41,6.41,0,0,1,2.76,2.2,6.08,6.08,0,0,1,1,3.56V65.66a10,10,0,0,0,.18,2.12,6.16,6.16,0,0,0,.68,1.7H20.66a6.37,6.37,0,0,1-.43-2,8.94,8.94,0,0,1-4.06,2.2,24.51,24.51,0,0,1-5.86.6Q0,70.33,0,63.76c0-2.31.75-4,2.24-5S6,57.08,9.1,56.87l8.21-.55a4.21,4.21,0,0,0,2-.48,1.47,1.47,0,0,0,.49-1.23,1.83,1.83,0,0,0-1.27-1.69,10.19,10.19,0,0,0-3.95-.57,7.23,7.23,0,0,0-3.42.65,2.89,2.89,0,0,0-1.48,2ZM20,59.63a19,19,0,0,1-3.15.58l-5.57.67C9.74,61.06,9,61.77,9,63a2.15,2.15,0,0,0,1,1.88,4.71,4.71,0,0,0,2.69.68,10,10,0,0,0,5.46-1.24A3.87,3.87,0,0,0,20,60.92Z"/><path class="cls-1" d="M30.62,48.39h4.32V46.6a9,9,0,0,1,.35-2.69,3.93,3.93,0,0,1,1.29-1.85,6.4,6.4,0,0,1,2.7-1.14,21.65,21.65,0,0,1,4.53-.39,39.68,39.68,0,0,1,4.83.31v4.67h-3.7a2.2,2.2,0,0,0-1.42.31,1.79,1.79,0,0,0-.33,1.28v1.29h5.45v5.44H43.19V69.48H34.94V53.83H30.62Z"/><path class="cls-1" d="M48.64,48.39H53v-6.7h8.25v6.7h5.44v5.44H61.21v8.49c0,.93.16,1.53.48,1.79a4,4,0,0,0,2.2.39c.55,0,1.32,0,2.34-.08h.58v5.13a45.8,45.8,0,0,1-6.27.39q-4.12,0-5.85-1.26C53.53,67.83,53,66.3,53,64.07V53.83H48.64Z"/><path class="cls-1" d="M98.13,63.21a7.49,7.49,0,0,1-1.38,2.65,9.62,9.62,0,0,1-2.7,2.25,15.28,15.28,0,0,1-4.21,1.62,24.5,24.5,0,0,1-5.72.6q-7.23,0-11-2.84t-3.77-8.6a9.89,9.89,0,0,1,3.91-8.42q3.91-2.94,10.64-2.94,7,0,10.8,3.15t3.83,9.57v.63H77.82a5.23,5.23,0,0,0,2,3.44,7.4,7.4,0,0,0,4.65,1.26,6,6,0,0,0,3-.64,6.62,6.62,0,0,0,2-1.73ZM90,56.6a5.19,5.19,0,0,0-1.89-3.14,6.64,6.64,0,0,0-4.22-1.18,6.64,6.64,0,0,0-4.22,1.18,5.19,5.19,0,0,0-1.89,3.14Z"/><path class="cls-1" d="M102.1,48.39h8.13v4.16h.08a9.2,9.2,0,0,1,3.54-3.43,10.26,10.26,0,0,1,5.06-1.28,15.37,15.37,0,0,1,2.8.23v7.71a10.15,10.15,0,0,0-2.12-.51,16.46,16.46,0,0,0-2.43-.19A7.12,7.12,0,0,0,112,56.71a6.08,6.08,0,0,0-1.69,4.59v8.18H102.1Z"/><path class="cls-1" d="M1.75,83.39H11v21.32H27.94v6.46H1.75Z"/><path class="cls-1" d="M39.49,83.39H50.82l11.94,27.78H52.84l-1.67-4.52H39l-1.68,4.52H27.43Zm5.65,7h-.08L41.21,100.9H49Z"/><path class="cls-1" d="M70.74,102.41l-12.34-19H69.14l6.23,11.79L81.6,83.39H92.33L80,102.41v8.76H70.74Z"/><path class="cls-1" d="M94,83.39h27.82v6H103.27v5h17.39v5.76H103.27v5h18.56v6H94Z"/><path class="cls-1" d="M125.72,83.39H148c3.27,0,5.63.67,7.1,2a7.41,7.41,0,0,1,2.2,5.72,6.76,6.76,0,0,1-1.23,4.24,5.76,5.76,0,0,1-3.21,2.1v.08a4.55,4.55,0,0,1,2.32,1.67,6.48,6.48,0,0,1,1,3.31c.13,1.69.23,2.93.31,3.74s.17,1.52.29,2.15a8,8,0,0,0,.45,1.6,4.32,4.32,0,0,0,.7,1.15H147.78a6.46,6.46,0,0,1-.45-1.83c-.06-.67-.09-1.44-.09-2.3,0-2.05-.31-3.41-.92-4.1a3.62,3.62,0,0,0-2.86-1H135v9.26h-9.26ZM135,95.68h8.91a3.66,3.66,0,0,0,2.57-.82,2.87,2.87,0,0,0,.89-2.25,2.77,2.77,0,0,0-.89-2.2,3.75,3.75,0,0,0-2.57-.8H135Z"/></g></g></svg>