<svg width="352" height="352" viewBox="0 0 352 352" fill="none" xmlns="http://www.w3.org/2000/svg">
<g clip-path="url(#clip0)">
<path d="M218.236 309.582C292.045 286.222 332.942 207.452 309.582 133.643C286.222 59.8339 207.451 18.937 133.643 42.2968C59.8339 65.6566 18.9369 144.427 42.2967 218.236C65.6566 292.045 144.427 332.942 218.236 309.582Z" fill="#0000FF"/>
<path d="M222.701 124.873L221.075 133.446L214.515 126.43L208.361 127.552L219.764 139.751L216.921 154.599L223.076 153.478L224.731 144.998L231.262 151.92L237.387 150.705L225.919 138.63L228.826 123.657L222.701 124.873Z" fill="white"/>
<path d="M196.115 127.708C192.802 128.343 191.447 135.488 192.975 143.58C194.533 151.766 198.522 157.84 201.804 157.111C205.116 156.476 206.471 149.331 204.943 141.239C203.415 133.147 199.427 127.073 196.115 127.708Z" fill="white"/>
<path d="M258.967 151.315C255.634 134.908 249.475 120.016 241.201 108.892C231.617 95.9104 219.791 88.9074 208.044 89.0088C199.506 89.128 191.846 92.999 185.848 100.167C174.871 113.147 170.574 135.481 174.283 159.932C175.047 164.959 176.094 169.897 177.392 174.653C149.649 177.75 141.872 162.647 136.168 117.853L132.505 119.012C136.426 150.008 134.953 166.903 127.07 179.213C119.311 191.588 104.821 199.997 75.5193 209.271L76.0211 213.142C105.323 203.868 120.698 202.825 130.877 209.522C141.056 216.22 146.533 230.915 150.424 261.817L154.087 260.658C150.166 229.662 151.639 212.767 159.521 200.457C163.769 193.636 170.148 188.001 179.884 182.853C183.317 192.719 188.009 201.67 193.536 209.013C203.492 222.187 215.347 229.284 227.158 229.059C229.838 229.037 232.398 228.64 234.84 227.867C240.006 226.233 244.666 223.001 248.662 218.327C259.546 205.376 263.847 182.73 260.024 157.593C259.851 156.718 259.801 155.907 259.627 155.032L274.278 150.395L273.994 146.559L258.967 151.315ZM253.029 158.67C256.51 181.746 252.894 202.315 243.28 213.727C238.775 219.079 233.249 221.861 227.079 221.954C217.636 222.153 207.824 215.96 199.303 204.708C193.989 197.711 189.633 189.17 186.413 179.65C190.491 177.843 194.974 176.011 199.986 174.218C200.943 178.875 202.049 184.001 202.906 187.036C204.616 193.417 207.407 198.32 211.157 201.68C215.92 205.958 222.408 207.521 227.855 205.797C228.137 205.708 228.419 205.619 228.7 205.53C233.935 203.46 237.842 198.503 239.217 192.075C240.356 186.859 239.72 181.584 238.985 176.65C238.31 171.905 237.511 167.095 236.554 162.438L252.801 157.296C252.92 157.671 252.975 158.171 253.029 158.67ZM252.111 153.484L235.77 158.656L228.914 160.826C230.045 166.358 231.017 172.043 231.866 177.663C232.576 182.192 233.039 186.591 232.137 190.597C231.466 193.702 229.476 197.535 225.997 198.946C222.957 200.115 218.828 199.148 215.816 196.485C213.08 194.045 211.051 190.244 209.693 185.301C208.721 181.579 207.179 174.421 206.108 169.077C205.85 167.609 205.528 166.265 205.295 165.202L198.325 166.685C198.528 167.653 198.791 168.81 198.989 170.09C193.671 171.567 188.792 172.801 184.387 173.575C183.089 168.82 181.949 163.912 181.184 158.884C177.788 136.401 181.523 116.208 191.136 104.796C194.372 100.982 198.088 98.3592 202.221 97.0514C204.099 96.4569 206.066 96.1442 208.029 96.1429C217.378 95.9738 227.131 101.979 235.311 113.133C243.282 123.629 249.11 137.799 252.111 153.484Z" fill="white"/>
</g>
<defs>
<clipPath id="clip0">
<rect width="280.352" height="280.352" fill="white" transform="translate(0 84.5935) rotate(-17.5621)"/>
</clipPath>
</defs>
</svg>
