<svg xmlns="http://www.w3.org/2000/svg" viewBox="0 0 280 280"><defs><style>.cls-1{fill:blue;}.cls-2{fill:#fff;}</style></defs><title>sticker</title><g id="Layer_2" data-name="Layer 2"><g id="레이어_1" data-name="레이어 1"><circle class="cls-1" cx="140" cy="140" r="140"/><path class="cls-2" d="M246.53,129.68a1.27,1.27,0,0,0-.65-.8c-32.11-16.77-67.57-28.65-74.44-17.4-2.37,3.89-2.67,13.39,19.7,34.3-28.82-10.33-37.14-5.72-39.51-1.83s-2.67,13.41,19.76,34.36c-28.89-10.37-37.22-5.76-39.6-1.86-6.86,11.24,19.93,37.35,49.52,58.24a1.26,1.26,0,0,0,.75.24,1.09,1.09,0,0,0,.26,0,1.3,1.3,0,0,0,.86-.6l63.21-103.58A1.31,1.31,0,0,0,246.53,129.68Z"/><path class="cls-2" d="M120.92,207.85c-12.72-1.11-26.77-11.2-35.79-25.7S73.26,151,77.83,138.92a1.29,1.29,0,0,0-.76-1.68l-22.94-8.69a1.31,1.31,0,0,0-1.69.76c-7.5,19.8-3.81,45.54,9.63,67.17,13.58,21.85,35.23,36.57,56.5,38.42h.11a1.3,1.3,0,0,0,1.3-1.19l2.13-24.44A1.31,1.31,0,0,0,120.92,207.85Z"/><path class="cls-2" d="M138.2,133.55l-10.09-10.09,10.09-10.09a1.31,1.31,0,0,0,0-1.85l-9.12-9.11a1.31,1.31,0,0,0-.93-.39,1.29,1.29,0,0,0-.92.39L117.14,112.5l-10.09-10.09a1.35,1.35,0,0,0-1.85,0l-9.12,9.11a1.31,1.31,0,0,0,0,1.85l10.09,10.09L96.08,133.55a1.31,1.31,0,0,0,0,1.85l9.12,9.12a1.35,1.35,0,0,0,1.85,0l10.09-10.09,10.09,10.09a1.28,1.28,0,0,0,.92.38,1.3,1.3,0,0,0,.93-.38l9.12-9.12A1.31,1.31,0,0,0,138.2,133.55Z"/><path class="cls-2" d="M147.8,71.69a28.81,28.81,0,0,1,22.47,22.47,1.94,1.94,0,0,0,3.79,0,28.81,28.81,0,0,1,22.47-22.47,1.94,1.94,0,0,0,0-3.79,28.81,28.81,0,0,1-22.47-22.47,1.94,1.94,0,0,0-3.79,0A28.81,28.81,0,0,1,147.8,67.9a1.94,1.94,0,0,0,0,3.79Z"/><path class="cls-2" d="M66.46,90.28h38.87A1.31,1.31,0,0,0,106.64,89V55.65a1.31,1.31,0,0,0-1.31-1.31C83.18,54.34,65.16,69.87,65.16,89A1.31,1.31,0,0,0,66.46,90.28Z"/></g></g></svg>